# xmcd
#
# Track frame offsets:
#	150
#	20475
#	33982
#	52360
#	70399
#	88786
#	108551
#	126845
#	142371
#	160201
#	176617
#	193914
#	212441
#	230788
#	248612
#
# Disc length: 3569 seconds
#
# Revision: 0
# Processed by: cddbd v1.5.1PL0 Copyright (c) Steve Scherf et al.
# Submitted via: audiograbber 1.83.01
#
DISCID=e60def0f
DTITLE=Various Artist - Best Of Country Male Vol#2
DYEAR=2001
DGENRE=Karaoke
TTITLE0=Soggy Bottom Boys - Im A Man Of Constant Sorrow
TTITLE1=Toby Keith - Im Just Talking About Tonight
TTITLE2=Blake Shelton - Austin
TTITLE3=Joe Diffie - In Another World
TTITLE4=Clay Walker - If You Ever Feel Like Lovin Me Again
TTITLE5=Brad Paisley - Two People Fell In Love
TTITLE6=Montgomery Gentry - She Couldnt Change Me
TTITLE7=Tracy Lawrence - Life Dont Have To Be So Hard
TTITLE8=Keith Urban - But For The Grace Of God
TTITLE9=Billy Gilman - Theres A Hero
TTITLE10=Travis Tritt - Love Of A Woman
TTITLE11=Tim McGraw - Grown Men Dont Cry
TTITLE12=Phil Vassar - Six Pack Summer
TTITLE13=Trace Adkins - Im Tryin
TTITLE14=Tracy Byrd - Just Let Me Be In Love
EXTD=
EXTT0=
EXTT1=
EXTT2=
EXTT3=
EXTT4=
EXTT5=
EXTT6=
EXTT7=
EXTT8=
EXTT9=
EXTT10=
EXTT11=
EXTT12=
EXTT13=
EXTT14=
PLAYORDER=
